<svg width="88" height="19" viewBox="0 0 88 19" fill="none" xmlns="http://www.w3.org/2000/svg">
<path d="M12.8789 9.90928C12.8039 10.2558 12.6836 10.591 12.5209 10.9061C12.3478 11.2174 12.1354 11.5052 11.8889 11.7624C11.6317 12.0089 11.3439 12.2213 11.0326 12.3944C10.7172 12.5564 10.3821 12.6767 10.0358 12.7524C9.6844 12.8138 9.32674 12.8313 8.97104 12.8045C8.61847 12.7633 8.27276 12.6764 7.94254 12.5462C7.61397 12.407 7.30481 12.2257 7.02278 12.0071C6.75129 11.7761 6.51069 11.5111 6.30691 11.2187C6.11526 10.9201 5.96297 10.598 5.85383 10.2604C5.75755 9.91727 5.70503 9.56333 5.69751 9.207L8.09206 9.207C8.10345 9.32635 8.12467 9.44455 8.15549 9.56041C8.19632 9.67271 8.24711 9.78112 8.30727 9.88436C8.3817 9.98184 8.46431 10.0728 8.5542 10.1562C8.65153 10.2278 8.75545 10.29 8.86456 10.342C8.97657 10.3834 9.09281 10.4122 9.21117 10.4281C9.33195 10.4367 9.45326 10.4344 9.57364 10.4213C9.68805 10.3914 9.79952 10.3512 9.90665 10.3012C10.0109 10.234 10.1094 10.1582 10.2012 10.0747C10.2847 9.98293 10.3605 9.88442 10.4277 9.78015C10.4778 9.67225 10.5179 9.56003 10.5478 9.44487C10.5642 9.32252 10.5703 9.19899 10.5659 9.07561C10.5482 8.95738 10.5186 8.84125 10.4775 8.729C10.4256 8.61989 10.3634 8.51597 10.2918 8.41864C10.2083 8.32875 10.1174 8.24614 10.0199 8.17171C9.91716 8.11065 9.80865 8.05981 9.69597 8.01993C9.57784 7.9907 9.45726 7.9725 9.33577 7.96556L0 7.96556L0 5.58008L9.3267 5.58008C9.68313 5.58632 10.0372 5.63887 10.3801 5.73639C10.7177 5.84554 11.0398 5.99782 11.3384 6.18947C11.6308 6.39325 11.8958 6.63386 12.1268 6.90534C12.3468 7.18277 12.5303 7.48732 12.6727 7.81151C12.8026 8.14028 12.8894 8.48445 12.931 8.83548C12.9586 9.19418 12.941 9.55493 12.8789 9.90928Z" fill="white"/>
<path d="M15.5974 10.4456C15.4708 11.0621 15.258 11.6577 14.9653 12.2149C14.663 12.7653 14.2873 13.2721 13.8485 13.7214C13.3986 14.1595 12.8919 14.5352 12.342 14.8383C11.7843 15.1298 11.1889 15.3425 10.5727 15.4703C9.95605 15.5861 9.32652 15.6173 8.70145 15.5632C8.07948 15.4957 7.46969 15.3432 6.88912 15.1101C6.3114 14.8644 5.77019 14.5404 5.28068 14.1473C4.80032 13.7423 4.37666 13.2744 4.02111 12.7563C3.67632 12.2307 3.40641 11.6596 3.21915 11.0595C3.04416 10.4548 2.95195 9.82914 2.94504 9.19964L5.28521 9.19964C5.29191 9.59748 5.35056 9.99274 5.45965 10.3754C5.57964 10.7527 5.74954 11.1123 5.96483 11.4447C6.19225 11.7717 6.46104 12.0679 6.76452 12.3259C7.0749 12.5735 7.41699 12.7784 7.78169 12.9353C8.15002 13.0819 8.5363 13.1787 8.93026 13.223C9.32684 13.2545 9.72582 13.2347 10.1173 13.1641C10.5053 13.0828 10.8804 12.9486 11.2319 12.7654C11.5794 12.5725 11.9 12.3349 12.1857 12.0586C12.4623 11.771 12.7006 11.4489 12.8947 11.1003C13.076 10.7479 13.2101 10.3732 13.2934 9.98574C13.3633 9.59412 13.3823 9.19514 13.3501 8.79866C13.3069 8.4045 13.2101 8.01808 13.0624 7.65009C12.9066 7.28696 12.704 6.94577 12.4598 6.63519C12.2017 6.33247 11.9055 6.06444 11.5785 5.83776C11.2462 5.62247 10.8866 5.45257 10.5093 5.33258C10.1266 5.22349 9.73134 5.16485 9.3335 5.15814L0 5.15814L0 2.80664L9.32671 2.80664C9.9549 2.8134 10.5792 2.9064 11.1821 3.08302C11.7827 3.27072 12.3545 3.54059 12.8811 3.88498C13.3993 4.2404 13.8672 4.66407 14.2721 5.14455C14.6656 5.63422 14.9903 6.17538 15.2372 6.75299C15.4693 7.33388 15.6217 7.94353 15.6903 8.56532C15.7452 9.19339 15.714 9.82602 15.5974 10.4456Z" fill="white"/>
<path d="M18.3498 10.9918C18.1693 11.8798 17.8643 12.7378 17.4437 13.5404C17.012 14.3343 16.4706 15.0634 15.8352 15.7061C15.1914 16.3401 14.4625 16.8814 13.6695 17.3146C12.8669 17.7351 12.0089 18.0402 11.1209 18.2207C10.2343 18.3893 9.32833 18.4328 8.4296 18.3498C7.52846 18.2562 6.64519 18.035 5.80625 17.6929C4.9726 17.3435 4.19241 16.8783 3.48874 16.311C2.79599 15.7319 2.18617 15.0604 1.67641 14.3151C1.17862 13.5588 0.790408 12.7359 0.52331 11.8708C0.266824 11.0034 0.133373 10.1043 0.126863 9.19984L2.51234 9.19984C2.51975 9.86943 2.61884 10.5349 2.80685 11.1775C3.00644 11.8186 3.29467 12.4286 3.66317 12.9899C4.04033 13.5428 4.49158 14.0413 5.0043 14.4715C5.52641 14.8908 6.10339 15.2369 6.71922 15.5C7.34099 15.7501 7.9943 15.9132 8.66068 15.9848C9.32439 16.0414 9.99273 16.0079 10.6474 15.8851C11.3045 15.7481 11.939 15.5193 12.5323 15.2055C13.1191 14.8837 13.6595 14.4835 14.1384 14.0161C14.6087 13.5391 15.0119 13.0003 15.3368 12.4145C15.6507 11.8212 15.8795 11.1867 16.0165 10.5296C16.1393 9.87187 16.1721 9.20043 16.1139 8.53381C16.0431 7.86755 15.8807 7.21424 15.6314 6.59235C15.3683 5.97652 15.0222 5.39954 14.6029 4.87743C14.1721 4.36459 13.6737 3.91266 13.1213 3.53404C11.9992 2.78684 10.6816 2.38731 9.3335 2.38548L0 2.38548L0 0L9.32671 0C10.2342 0.00566068 11.1364 0.139121 12.0067 0.396447C12.8719 0.664253 13.6949 1.05324 14.4511 1.55181C15.1978 2.05966 15.8696 2.66971 16.4469 3.36414C17.0161 4.06692 17.4836 4.84632 17.8356 5.67939C18.1774 6.5192 18.3986 7.40318 18.4926 8.30501C18.5706 9.20287 18.5226 10.1072 18.3498 10.9918Z" fill="white"/>
<path d="M22.1392 16.7543V0.450307H27.7786C28.8524 0.432391 29.9185 0.635814 30.9103 1.04789C31.79 1.41271 32.5458 2.02343 33.0871 2.80683C33.6376 3.65403 33.9145 4.6498 33.8804 5.65947C33.9107 6.63223 33.6587 7.59297 33.1548 8.42566C32.6647 9.19608 31.9587 9.80521 31.1246 10.1771C30.1777 10.5937 29.1513 10.7989 28.1169 10.7784H24.6167V16.7543H22.1392ZM24.5867 8.80526H28.0492C28.9813 8.83933 29.8905 8.51212 30.587 7.89196C30.9139 7.58989 31.171 7.22023 31.3404 6.80872C31.5099 6.39721 31.5876 5.95373 31.5682 5.50913C31.5943 5.07047 31.5159 4.63188 31.3394 4.22941C31.1629 3.82693 30.8935 3.47206 30.5531 3.19395C29.8076 2.63338 28.8911 2.34788 27.959 2.38589H24.5754L24.5867 8.80526Z" fill="white"/>
<path d="M37.7486 16.9799C37.0602 16.9929 36.3773 16.8543 35.7485 16.574C35.1945 16.3225 34.7236 15.9183 34.3913 15.4089C34.0483 14.8543 33.8758 14.2114 33.895 13.5597C33.895 12.2668 34.3537 11.3009 35.271 10.662C36.1884 10.023 37.6496 9.68228 39.6547 9.63969L41.5721 9.58331V8.73767C41.588 8.44744 41.543 8.1571 41.4401 7.88526C41.3371 7.61342 41.1785 7.3661 40.9743 7.15914C40.4596 6.73667 39.799 6.5341 39.1359 6.59537C38.5533 6.58463 37.9788 6.73275 37.4741 7.02383C37.2246 7.17825 37.0106 7.38363 36.846 7.62652C36.6814 7.86941 36.5701 8.14432 36.5192 8.43324H34.4101C34.4317 7.72877 34.6663 7.04738 35.083 6.47886C35.5095 5.92293 36.0861 5.50043 36.7448 5.26114C37.5458 4.98513 38.3906 4.85776 39.2374 4.8853C40.1349 4.85463 41.0295 5.00283 41.8691 5.32127C42.5034 5.56579 43.0406 6.01048 43.3993 6.58786C43.7489 7.20574 43.9219 7.90785 43.8993 8.6174V16.7544H41.8578L41.6661 14.6121C41.3332 15.3943 40.7536 16.0463 40.0156 16.4687C39.312 16.8188 38.5344 16.9942 37.7486 16.9799ZM38.5005 15.2999C38.8739 15.2996 39.2442 15.2335 39.5945 15.1044C39.9475 14.9754 40.2784 14.7929 40.5758 14.5632C40.8546 14.3481 41.0937 14.0861 41.2826 13.789C41.4516 13.5259 41.5465 13.222 41.5571 12.9095V10.9814L39.978 11.0153C39.2884 11.0083 38.6008 11.0917 37.9328 11.2633C37.4407 11.3849 36.9943 11.6459 36.647 12.015C36.3364 12.3824 36.1765 12.8537 36.1996 13.3342C36.1863 13.6121 36.2386 13.8892 36.3523 14.1432C36.4659 14.3972 36.6377 14.6209 36.8538 14.7962C37.3287 15.1508 37.9123 15.3289 38.5043 15.2999H38.5005Z" fill="white"/>
<path d="M48.7343 16.9129C48.1667 16.9344 47.6005 16.8424 47.0688 16.6423C46.6901 16.4925 46.3607 16.2399 46.1177 15.9131C45.8918 15.6057 45.7388 15.251 45.6703 14.8758C45.5985 14.4802 45.5633 14.0789 45.565 13.6769V0H47.9448V13.4288C47.9155 13.8658 48.0275 14.3006 48.2644 14.6691C48.3839 14.8171 48.5343 14.9372 48.7051 15.0209C48.8759 15.1047 49.063 15.1501 49.2532 15.1539L49.8622 15.1765V16.7099C49.6723 16.7702 49.479 16.8192 49.2832 16.8565C49.1023 16.8917 48.9186 16.9106 48.7343 16.9129Z" fill="white"/>
<path d="M54.036 16.9799C53.3464 16.9929 52.6623 16.8543 52.0321 16.574C51.4736 16.3248 50.9986 15.9204 50.6636 15.4089C50.3246 14.8505 50.1572 14.2049 50.1824 13.5522C50.1824 12.2593 50.6411 11.2934 51.5584 10.6545C52.4758 10.0155 53.9382 9.67727 55.9459 9.63969L57.8633 9.58331V8.73767C57.8791 8.44744 57.8342 8.1571 57.7312 7.88526C57.6283 7.61342 57.4696 7.3661 57.2655 7.15914C56.7508 6.73667 56.0902 6.5341 55.427 6.59538C54.8433 6.5847 54.2676 6.7328 53.7615 7.02383C53.5133 7.17885 53.3006 7.38452 53.1373 7.6274C52.974 7.87028 52.8639 8.14488 52.8141 8.43324H50.7163C50.7366 7.72913 50.9699 7.04772 51.3855 6.47886C51.8155 5.92835 52.3931 5.51127 53.051 5.27617C53.8451 4.99731 54.6833 4.86487 55.5248 4.8853C56.4223 4.85463 57.3169 5.00283 58.1565 5.32127C58.7897 5.56601 59.3257 6.01074 59.6829 6.58786C60.0339 7.20537 60.2082 7.9075 60.1867 8.6174V16.7544H58.1452L57.9535 14.6121C57.6192 15.3946 57.0383 16.0465 56.2993 16.4687C55.5968 16.8183 54.8205 16.9936 54.036 16.9799ZM54.7879 15.2999C55.1613 15.2996 55.5316 15.2335 55.882 15.1044C56.2349 14.9754 56.5658 14.7929 56.8632 14.5632C57.141 14.3482 57.3789 14.0861 57.5663 13.789C57.7364 13.5262 57.8326 13.2223 57.8445 12.9095V10.9814L56.2654 11.0153C55.5745 11.0084 54.8857 11.0917 54.2165 11.2633C53.7244 11.3849 53.2779 11.6459 52.9307 12.015C52.621 12.3827 52.4625 12.8542 52.487 13.3342C52.4738 13.6121 52.526 13.8893 52.6397 14.1432C52.7533 14.3972 52.9251 14.6209 53.1412 14.7962C53.6161 15.1508 54.1997 15.3289 54.7917 15.2999H54.7879Z" fill="white"/>
<path d="M66.1151 16.9805C65.4316 17.0131 64.7497 16.8885 64.122 16.6161C63.4943 16.3437 62.9375 15.9309 62.4946 15.4095C61.6148 14.3596 61.175 12.8463 61.175 10.8693C61.1526 9.79064 61.3324 8.71729 61.7051 7.70475C62.0141 6.8669 62.5649 6.13962 63.2878 5.61507C64.0582 5.09635 64.9724 4.83335 65.9008 4.86339C66.3752 4.8562 66.848 4.92082 67.3031 5.05506C67.6851 5.17002 68.0494 5.33696 68.3859 5.55118C68.9038 5.88073 69.3356 6.32914 69.6453 6.8591V0H72.0703V16.755H70.2657L69.995 14.3647C69.8987 14.655 69.7727 14.9346 69.619 15.199C69.4292 15.5195 69.1908 15.8086 68.9122 16.0559C68.5818 16.3471 68.199 16.5728 67.7843 16.7212C67.2481 16.9075 66.6826 16.9953 66.1151 16.9805ZM66.5775 15.1652C67.6603 15.1652 68.4573 14.8269 68.9235 14.1429C69.3897 13.4589 69.6453 12.3464 69.6453 10.7904C69.6566 10.0335 69.5461 9.27977 69.3182 8.55791C69.1474 8.0049 68.8051 7.52054 68.3407 7.17481C67.8265 6.84411 67.2222 6.68126 66.6113 6.70877C66.1977 6.6967 65.7865 6.77716 65.408 6.94428C65.0294 7.11139 64.693 7.36093 64.4232 7.67468C63.8593 8.31361 63.5773 9.35469 63.5773 10.7904C63.5773 12.2261 63.833 13.286 64.3481 14.0377C64.5908 14.4019 64.9237 14.6971 65.3144 14.8947C65.705 15.0923 66.1402 15.1855 66.5775 15.1652Z" fill="white"/>
<path d="M76.2438 0.462891V2.84197H73.8188V0.462891H76.2438ZM76.1987 5.09701V16.7481H73.8677V5.09701H76.1987Z" fill="white"/>
<path d="M77.9802 16.7551V5.10407H80.3375V6.76529C80.5393 6.4304 80.7931 6.12973 81.0894 5.87454C81.4396 5.57874 81.841 5.34946 82.2737 5.19803C83.4711 4.79888 84.7746 4.86189 85.928 5.37467C86.5535 5.6632 87.0775 6.13338 87.4318 6.72394C87.8347 7.44883 88.0298 8.27072 87.9958 9.09926V16.7551H85.5821V9.36987C85.6082 9.03094 85.5616 8.69036 85.4456 8.37084C85.3296 8.05132 85.1467 7.76022 84.9092 7.51697C84.432 7.10006 83.8129 6.88212 83.1797 6.90811C82.7181 6.90599 82.2598 6.98617 81.8263 7.14489C81.4214 7.28511 81.0626 7.53335 80.7886 7.86274C80.5251 8.20522 80.3919 8.63012 80.4127 9.06168V16.7551H77.9802Z" fill="white"/>
</svg>
